<svg style="display:none">

    <symbol id="jornal" class="w-6 h-6" xmlns="http://www.w3.org/2000/svg" fill="none" viewBox="0 0 24 24" stroke-width="1.5" stroke="currentColor">

        <path stroke-linecap="round" stroke-linejoin="round" d="M12 7.5h1.5m-1.5 3h1.5m-7.5 3h7.5m-7.5 3h7.5m3-9h3.375c.621 0 1.125.504 1.125 1.125V18a2.25 2.25 0 01-2.25 2.25M16.5 7.5V18a2.25 2.25 0 002.25 2.25M16.5 7.5V4.875c0-.621-.504-1.125-1.125-1.125H4.125C3.504 3.75 3 4.254 3 4.875V18a2.25 2.25 0 002.25 2.25h13.5M6 7.5h3v3H6v-3z" />

    </symbol>

    <symbol id="jornal2" xmlns="http://www.w3.org/2000/svg" fill="none" viewBox="0 0 24 24" stroke-width="2" stroke="currentColor" aria-hidden="true" style="stroke:rgb(85 204 255)" class="w-5 h-5">
        <path stroke-linecap="round" stroke-linejoin="round" d="M19 20H5a2 2 0 01-2-2V6a2 2 0 012-2h10a2 2 0 012 2v1m2 13a2 2 0 01-2-2V7m2 13a2 2 0 002-2V9a2 2 0 00-2-2h-2m-4-3H9M7 16h6M7 8h6v4H7V8z"></path>
    </symbol>

    <symbol id="mouse" class="w-6 h-6" xmlns="http://www.w3.org/2000/svg" fill="none" viewBox="0 0 24 24" stroke-width="1.5" stroke="currentColor">
        <path stroke-linecap="round" stroke-linejoin="round" d="M15.042 21.672L13.684 16.6m0 0l-2.51 2.225.569-9.47 5.227 7.917-3.286-.672zm-7.518-.267A8.25 8.25 0 1120.25 10.5M8.288 14.212A5.25 5.25 0 1117.25 10.5"></path>
    </symbol>

    <symbol id="email" class="w-6 h-6" xmlns="http://www.w3.org/2000/svg" fill="none" viewBox="0 0 24 24" stroke-width="1.5" stroke="currentColor" style="stroke: rgb(34, 197, 94);">
        <path stroke-linecap="round" stroke-linejoin="round" d="M21.75 6.75v10.5a2.25 2.25 0 01-2.25 2.25h-15a2.25 2.25 0 01-2.25-2.25V6.75m19.5 0A2.25 2.25 0 0019.5 4.5h-15a2.25 2.25 0 00-2.25 2.25m19.5 0v.243a2.25 2.25 0 01-1.07 1.916l-7.5 4.615a2.25 2.25 0 01-2.36 0L3.32 8.91a2.25 2.25 0 01-1.07-1.916V6.75"></path>
    </symbol>

    <symbol id="email2" class="w-6 h-6" xmlns="http://www.w3.org/2000/svg" fill="none" viewBox="0 0 24 24" stroke-width="1.5" stroke="currentColor" style="stroke: #000000;">
        <path stroke-linecap="round" stroke-linejoin="round" d="M21.75 6.75v10.5a2.25 2.25 0 01-2.25 2.25h-15a2.25 2.25 0 01-2.25-2.25V6.75m19.5 0A2.25 2.25 0 0019.5 4.5h-15a2.25 2.25 0 00-2.25 2.25m19.5 0v.243a2.25 2.25 0 01-1.07 1.916l-7.5 4.615a2.25 2.25 0 01-2.36 0L3.32 8.91a2.25 2.25 0 01-1.07-1.916V6.75"></path>
    </symbol>

    <symbol id="foguete" style="stroke:#f97316" class="w-6 h-6" xmlns="http://www.w3.org/2000/svg" fill="none" viewBox="0 0 24 24" stroke-width="1.5" stroke="currentColor">
        <path stroke-linecap="round" stroke-linejoin="round" d="M15.59 14.37a6 6 0 01-5.84 7.38v-4.8m5.84-2.58a14.98 14.98 0 006.16-12.12A14.98 14.98 0 009.631 8.41m5.96 5.96a14.926 14.926 0 01-5.841 2.58m-.119-8.54a6 6 0 00-7.381 5.84h4.8m2.581-5.84a14.927 14.927 0 00-2.58 5.84m2.699 2.7c-.103.021-.207.041-.311.06a15.09 15.09 0 01-2.448-2.448 14.9 14.9 0 01.06-.312m-2.24 2.39a4.493 4.493 0 00-1.757 4.306 4.493 4.493 0 004.306-1.758M16.5 9a1.5 1.5 0 11-3 0 1.5 1.5 0 013 0z"></path>
    </symbol>

    <symbol id="escrita" xmlns="http://www.w3.org/2000/svg" fill="none" viewBox="0 0 24 24" stroke-width="2" stroke="currentColor" aria-hidden="true" style="stroke:#fff" class="w-5 h-5">
        <path stroke-linecap="round" stroke-linejoin="round" d="M11 5H6a2 2 0 00-2 2v11a2 2 0 002 2h11a2 2 0 002-2v-5m-1.414-9.414a2 2 0 112.828 2.828L11.828 15H9v-2.828l8.586-8.586z"></path>
    </symbol>

    <symbol id="formatura" style="stroke:#ef4444" class="w-5 h-5" xmlns="http://www.w3.org/2000/svg" viewBox="0 0 256 256" focusable="false" color="rgb(255, 170, 34)">
        <g color="rgb(255, 170, 34)">
            <polygon points="8 96 128 32 248 96 128 160 8 96" fill="none" stroke="rgb(255, 170, 34)" stroke-linecap="round" stroke-linejoin="round" stroke-width="16"></polygon>
            <polyline points="188 240 188 128 128 96" fill="none" stroke="rgb(255, 170, 34)" stroke-linecap="round" stroke-linejoin="round" stroke-width="16"></polyline>
            <path d="M220,110.9v54.6a7.8,7.8,0,0,1-1.6,4.7c-6.7,9-35.1,41.8-90.4,41.8s-83.7-32.8-90.4-41.8a7.8,7.8,0,0,1-1.6-4.7V110.9" fill="none" stroke="rgb(255, 170, 34)" stroke-linecap="round" stroke-linejoin="round" stroke-width="16"></path>
        </g>
    </symbol>

    <symbol id="raio" xmlns="http://www.w3.org/2000/svg" fill="none" viewBox="0 0 24 24" stroke-width="2" stroke="currentColor" aria-hidden="true" style="stroke:#38bdf8" class="w-5 h-5">
        <path stroke-linecap="round" stroke-linejoin="round" d="M13 10V3L4 14h7v7l9-11h-7z"></path>
    </symbol>

    <symbol id="robo">
        <p>🤖</p>
    </symbol>

</svg>